<svg width="54" height="54" viewBox="0 0 54 54" fill="none" xmlns="http://www.w3.org/2000/svg">
<rect width="54" height="54" fill="#FDF6D7"/>
<path fill-rule="evenodd" clip-rule="evenodd" d="M35.3631 31.9537L28.2506 35.2587V26.8637L35.7506 23.3799V31.4237C35.7506 31.6412 35.6031 31.8437 35.3631 31.9537ZM18.6293 31.9549C18.3931 31.8449 18.2481 31.6424 18.2506 31.4149V23.3799L25.7506 26.8637V35.2612L18.6293 31.9549ZM26.6343 18.3299C26.7481 18.2762 26.8743 18.2499 27.0006 18.2499C27.1256 18.2499 27.2518 18.2762 27.3656 18.3299L34.0268 21.4224L27.0006 24.6874L19.9731 21.4224L26.6343 18.3299ZM37.8206 21.0737C37.8168 21.0637 37.8181 21.0524 37.8131 21.0424C37.8093 21.0324 37.7993 21.0262 37.7931 21.0162C37.7356 20.9212 37.6656 20.8374 37.5993 20.7499C37.5606 20.7074 37.5293 20.6599 37.4868 20.6237C37.1931 20.2787 36.8468 19.9749 36.4168 19.7762L28.4168 16.0599C28.4156 16.0599 28.4143 16.0599 28.4143 16.0587C27.5156 15.6437 26.4843 15.6449 25.5831 16.0599L17.5868 19.7749C17.1568 19.9737 16.8093 20.2762 16.5156 20.6212C16.4693 20.6599 16.4356 20.7124 16.3943 20.7587C16.3293 20.8424 16.2631 20.9237 16.2081 21.0137C16.2018 21.0249 16.1918 21.0324 16.1868 21.0424C16.1818 21.0537 16.1831 21.0649 16.1781 21.0762C15.9143 21.5287 15.7506 22.0374 15.7506 22.5724V31.4062C15.7406 32.5937 16.4556 33.6987 17.5731 34.2212L25.5718 37.9362C26.0243 38.1474 26.5093 38.2524 26.9956 38.2524C27.4806 38.2524 27.9656 38.1474 28.4168 37.9374L36.4131 34.2224C37.5281 33.7074 38.2493 32.6099 38.2506 31.4249V22.5712C38.2493 22.0362 38.0856 21.5274 37.8206 21.0737Z" fill="#DCAA37"/>
<mask id="mask0_9_1090" style="mask-type:luminance" maskUnits="userSpaceOnUse" x="15" y="15" width="24" height="24">
<path fill-rule="evenodd" clip-rule="evenodd" d="M35.3631 31.9537L28.2506 35.2587V26.8637L35.7506 23.3799V31.4237C35.7506 31.6412 35.6031 31.8437 35.3631 31.9537ZM18.6293 31.9549C18.3931 31.8449 18.2481 31.6424 18.2506 31.4149V23.3799L25.7506 26.8637V35.2612L18.6293 31.9549ZM26.6343 18.3299C26.7481 18.2762 26.8743 18.2499 27.0006 18.2499C27.1256 18.2499 27.2518 18.2762 27.3656 18.3299L34.0268 21.4224L27.0006 24.6874L19.9731 21.4224L26.6343 18.3299ZM37.8206 21.0737C37.8168 21.0637 37.8181 21.0524 37.8131 21.0424C37.8093 21.0324 37.7993 21.0262 37.7931 21.0162C37.7356 20.9212 37.6656 20.8374 37.5993 20.7499C37.5606 20.7074 37.5293 20.6599 37.4868 20.6237C37.1931 20.2787 36.8468 19.9749 36.4168 19.7762L28.4168 16.0599C28.4156 16.0599 28.4143 16.0599 28.4143 16.0587C27.5156 15.6437 26.4843 15.6449 25.5831 16.0599L17.5868 19.7749C17.1568 19.9737 16.8093 20.2762 16.5156 20.6212C16.4693 20.6599 16.4356 20.7124 16.3943 20.7587C16.3293 20.8424 16.2631 20.9237 16.2081 21.0137C16.2018 21.0249 16.1918 21.0324 16.1868 21.0424C16.1818 21.0537 16.1831 21.0649 16.1781 21.0762C15.9143 21.5287 15.7506 22.0374 15.7506 22.5724V31.4062C15.7406 32.5937 16.4556 33.6987 17.5731 34.2212L25.5718 37.9362C26.0243 38.1474 26.5093 38.2524 26.9956 38.2524C27.4806 38.2524 27.9656 38.1474 28.4168 37.9374L36.4131 34.2224C37.5281 33.7074 38.2493 32.6099 38.2506 31.4249V22.5712C38.2493 22.0362 38.0856 21.5274 37.8206 21.0737Z" fill="white"/>
</mask>
<g mask="url(#mask0_9_1090)">
<rect x="12" y="12" width="30" height="30" fill="#DCAA37"/>
</g>
</svg>
