<svg width="54" height="54" viewBox="0 0 54 54" fill="none" xmlns="http://www.w3.org/2000/svg">
<rect width="54" height="54" fill="#FDF6D7"/>
<path fill-rule="evenodd" clip-rule="evenodd" d="M28.875 34.6269L22.4988 30.2544C22.29 30.1132 22.0437 30.0357 21.7913 30.0357H16.375V23.9644H21.7913C22.0437 23.9644 22.29 23.8869 22.4988 23.7457L28.875 19.3732V34.6269ZM30.7075 15.8944C30.2962 15.6769 29.8 15.7057 29.4188 15.9682L21.4037 21.4644H15.125C14.435 21.4644 13.875 22.0232 13.875 22.7144V31.2857C13.875 31.9769 14.435 32.5357 15.125 32.5357H21.4037L29.4188 38.0319C29.63 38.1769 29.8775 38.2494 30.125 38.2494C30.325 38.2494 30.525 38.2019 30.7075 38.1057C31.1175 37.8894 31.375 37.4644 31.375 36.9994V16.9994C31.375 16.5357 31.1175 16.1107 30.7075 15.8944ZM34.8491 22.4662C34.4154 21.9287 33.6291 21.8449 33.0916 22.2762C32.5541 22.7087 32.4679 23.4949 32.9004 24.0337C34.1954 25.6412 34.1954 28.3587 32.9004 29.9662C32.4679 30.5049 32.5541 31.2912 33.0916 31.7237C33.3229 31.9099 33.5991 31.9999 33.8741 31.9999C34.2391 31.9999 34.6016 31.8399 34.8491 31.5337C36.8941 28.9912 36.8941 25.0087 34.8491 22.4662ZM34.7871 18.7031C35.2271 18.1706 36.0159 18.0968 36.5471 18.5368C39.2571 20.7818 40.7496 23.7881 40.7496 27.0006C40.7496 30.2118 39.2571 33.2181 36.5471 35.4631C36.3134 35.6556 36.0309 35.7506 35.7509 35.7506C35.3909 35.7506 35.0346 35.5956 34.7871 35.2968C34.3471 34.7656 34.4209 33.9781 34.9534 33.5368C37.0784 31.7756 38.2496 29.4543 38.2496 27.0006C38.2496 24.5456 37.0784 22.2243 34.9534 20.4631C34.4209 20.0218 34.3471 19.2343 34.7871 18.7031Z" fill="#DCAA37"/>
<mask id="mask0_9_1105" style="mask-type:luminance" maskUnits="userSpaceOnUse" x="13" y="15" width="28" height="24">
<path fill-rule="evenodd" clip-rule="evenodd" d="M28.875 34.6269L22.4988 30.2544C22.29 30.1132 22.0437 30.0357 21.7913 30.0357H16.375V23.9644H21.7913C22.0437 23.9644 22.29 23.8869 22.4988 23.7457L28.875 19.3732V34.6269ZM30.7075 15.8944C30.2962 15.6769 29.8 15.7057 29.4188 15.9682L21.4037 21.4644H15.125C14.435 21.4644 13.875 22.0232 13.875 22.7144V31.2857C13.875 31.9769 14.435 32.5357 15.125 32.5357H21.4037L29.4188 38.0319C29.63 38.1769 29.8775 38.2494 30.125 38.2494C30.325 38.2494 30.525 38.2019 30.7075 38.1057C31.1175 37.8894 31.375 37.4644 31.375 36.9994V16.9994C31.375 16.5357 31.1175 16.1107 30.7075 15.8944ZM34.8491 22.4662C34.4154 21.9287 33.6291 21.8449 33.0916 22.2762C32.5541 22.7087 32.4679 23.4949 32.9004 24.0337C34.1954 25.6412 34.1954 28.3587 32.9004 29.9662C32.4679 30.5049 32.5541 31.2912 33.0916 31.7237C33.3229 31.9099 33.5991 31.9999 33.8741 31.9999C34.2391 31.9999 34.6016 31.8399 34.8491 31.5337C36.8941 28.9912 36.8941 25.0087 34.8491 22.4662ZM34.7871 18.7031C35.2271 18.1706 36.0159 18.0968 36.5471 18.5368C39.2571 20.7818 40.7496 23.7881 40.7496 27.0006C40.7496 30.2118 39.2571 33.2181 36.5471 35.4631C36.3134 35.6556 36.0309 35.7506 35.7509 35.7506C35.3909 35.7506 35.0346 35.5956 34.7871 35.2968C34.3471 34.7656 34.4209 33.9781 34.9534 33.5368C37.0784 31.7756 38.2496 29.4543 38.2496 27.0006C38.2496 24.5456 37.0784 22.2243 34.9534 20.4631C34.4209 20.0218 34.3471 19.2343 34.7871 18.7031Z" fill="white"/>
</mask>
<g mask="url(#mask0_9_1105)">
<rect x="12" y="12" width="30" height="30" fill="#DCAA37"/>
</g>
</svg>
