<svg width="54" height="54" viewBox="0 0 54 54" fill="none" xmlns="http://www.w3.org/2000/svg">
<rect width="54" height="54" fill="#FDF6D7"/>
<path fill-rule="evenodd" clip-rule="evenodd" d="M28.25 18.25C28.25 18.9412 27.69 19.5 27 19.5C26.31 19.5 25.75 18.9412 25.75 18.25V15.75C25.75 15.0588 26.31 14.5 27 14.5C27.69 14.5 28.25 15.0588 28.25 15.75V18.25ZM28.25 31.3248C28.25 30.8785 28.4887 30.4648 28.8763 30.241C30.0325 29.5773 30.75 28.3348 30.75 26.9998C30.75 24.9323 29.0675 23.2498 27 23.2498C24.9325 23.2498 23.25 24.9323 23.25 26.9998C23.25 28.3348 23.9675 29.5773 25.1237 30.241C25.5112 30.4648 25.75 30.8785 25.75 31.3248V36.9998H28.25V31.3248ZM20.75 26.9998C20.75 23.5535 23.5538 20.7498 27 20.7498C30.4462 20.7498 33.25 23.5535 33.25 26.9998C33.25 28.9735 32.3075 30.8273 30.75 31.9948V36.9998C30.75 38.3785 29.6287 39.4998 28.25 39.4998H25.75C24.3713 39.4998 23.25 38.3785 23.25 36.9998V31.9948C21.6912 30.8273 20.75 28.9735 20.75 26.9998ZM38.25 25.75H35.75C35.0588 25.75 34.5 26.3088 34.5 27C34.5 27.6912 35.0588 28.25 35.75 28.25H38.25C38.9412 28.25 39.5 27.6912 39.5 27C39.5 26.3088 38.9412 25.75 38.25 25.75ZM15.75 25.75H18.25C18.94 25.75 19.5 26.3088 19.5 27C19.5 27.6912 18.94 28.25 18.25 28.25H15.75C15.06 28.25 14.5 27.6912 14.5 27C14.5 26.3088 15.06 25.75 15.75 25.75ZM21.5746 20.0225L19.7759 18.285C19.2796 17.8063 18.4896 17.8212 18.0084 18.3175C17.5284 18.8125 17.5421 19.605 18.0384 20.085L19.8371 21.8212C20.0809 22.0562 20.3934 22.1725 20.7059 22.1725C21.0334 22.1725 21.3596 22.0437 21.6046 21.79C22.0846 21.295 22.0709 20.5025 21.5746 20.0225ZM34.2242 18.2871C34.7192 17.8084 35.5142 17.8221 35.9905 18.3171C36.4705 18.8121 36.4568 19.6046 35.9605 20.0834L34.1618 21.8209C33.9205 22.0546 33.6068 22.1721 33.2943 22.1721C32.9667 22.1721 32.6392 22.0434 32.3955 21.7896C31.9155 21.2946 31.9292 20.5021 32.4255 20.0234L34.2242 18.2871Z" fill="#DCAA37"/>
<mask id="mask0_9_1095" style="mask-type:luminance" maskUnits="userSpaceOnUse" x="14" y="14" width="26" height="26">
<path fill-rule="evenodd" clip-rule="evenodd" d="M28.25 18.25C28.25 18.9412 27.69 19.5 27 19.5C26.31 19.5 25.75 18.9412 25.75 18.25V15.75C25.75 15.0588 26.31 14.5 27 14.5C27.69 14.5 28.25 15.0588 28.25 15.75V18.25ZM28.25 31.3248C28.25 30.8785 28.4887 30.4648 28.8763 30.241C30.0325 29.5773 30.75 28.3348 30.75 26.9998C30.75 24.9323 29.0675 23.2498 27 23.2498C24.9325 23.2498 23.25 24.9323 23.25 26.9998C23.25 28.3348 23.9675 29.5773 25.1237 30.241C25.5112 30.4648 25.75 30.8785 25.75 31.3248V36.9998H28.25V31.3248ZM20.75 26.9998C20.75 23.5535 23.5538 20.7498 27 20.7498C30.4462 20.7498 33.25 23.5535 33.25 26.9998C33.25 28.9735 32.3075 30.8273 30.75 31.9948V36.9998C30.75 38.3785 29.6287 39.4998 28.25 39.4998H25.75C24.3713 39.4998 23.25 38.3785 23.25 36.9998V31.9948C21.6912 30.8273 20.75 28.9735 20.75 26.9998ZM38.25 25.75H35.75C35.0588 25.75 34.5 26.3088 34.5 27C34.5 27.6912 35.0588 28.25 35.75 28.25H38.25C38.9412 28.25 39.5 27.6912 39.5 27C39.5 26.3088 38.9412 25.75 38.25 25.75ZM15.75 25.75H18.25C18.94 25.75 19.5 26.3088 19.5 27C19.5 27.6912 18.94 28.25 18.25 28.25H15.75C15.06 28.25 14.5 27.6912 14.5 27C14.5 26.3088 15.06 25.75 15.75 25.75ZM21.5746 20.0225L19.7759 18.285C19.2796 17.8063 18.4896 17.8212 18.0084 18.3175C17.5284 18.8125 17.5421 19.605 18.0384 20.085L19.8371 21.8212C20.0809 22.0562 20.3934 22.1725 20.7059 22.1725C21.0334 22.1725 21.3596 22.0437 21.6046 21.79C22.0846 21.295 22.0709 20.5025 21.5746 20.0225ZM34.2242 18.2871C34.7192 17.8084 35.5142 17.8221 35.9905 18.3171C36.4705 18.8121 36.4568 19.6046 35.9605 20.0834L34.1618 21.8209C33.9205 22.0546 33.6068 22.1721 33.2943 22.1721C32.9667 22.1721 32.6392 22.0434 32.3955 21.7896C31.9155 21.2946 31.9292 20.5021 32.4255 20.0234L34.2242 18.2871Z" fill="white"/>
</mask>
<g mask="url(#mask0_9_1095)">
<rect x="12" y="12" width="30" height="30" fill="#DCAA37"/>
</g>
</svg>
