<svg width="54" height="54" viewBox="0 0 54 54" fill="none" xmlns="http://www.w3.org/2000/svg">
<rect width="54" height="54" fill="#FDF6D7"/>
<path fill-rule="evenodd" clip-rule="evenodd" d="M30.75 27H28.25V24.5C28.25 23.8088 27.69 23.25 27 23.25C26.31 23.25 25.75 23.8088 25.75 24.5V28.25C25.75 28.9412 26.31 29.5 27 29.5H30.75C31.44 29.5 32 28.9412 32 28.25C32 27.5588 31.44 27 30.75 27ZM27 36.6875C22.3475 36.6875 18.5625 32.9025 18.5625 28.25C18.5625 23.5975 22.3475 19.8125 27 19.8125C31.6525 19.8125 35.4375 23.5975 35.4375 28.25C35.4375 32.9025 31.6525 36.6875 27 36.6875ZM28.235 17.0725C28.2375 17.0463 28.25 17.0262 28.25 17V15.75H29.5C30.19 15.75 30.75 15.1912 30.75 14.5C30.75 13.8088 30.19 13.25 29.5 13.25H24.5C23.81 13.25 23.25 13.8088 23.25 14.5C23.25 15.1912 23.81 15.75 24.5 15.75H25.75V17C25.75 17.0262 25.7625 17.0463 25.765 17.0725C20.1413 17.69 15.75 22.465 15.75 28.25C15.75 34.4538 20.7975 39.5 27 39.5C33.2025 39.5 38.25 34.4538 38.25 28.25C38.25 22.465 33.8587 17.69 28.235 17.0725Z" fill="#DCAA37"/>
<mask id="mask0_9_1100" style="mask-type:luminance" maskUnits="userSpaceOnUse" x="15" y="13" width="24" height="27">
<path fill-rule="evenodd" clip-rule="evenodd" d="M30.75 27H28.25V24.5C28.25 23.8088 27.69 23.25 27 23.25C26.31 23.25 25.75 23.8088 25.75 24.5V28.25C25.75 28.9412 26.31 29.5 27 29.5H30.75C31.44 29.5 32 28.9412 32 28.25C32 27.5588 31.44 27 30.75 27ZM27 36.6875C22.3475 36.6875 18.5625 32.9025 18.5625 28.25C18.5625 23.5975 22.3475 19.8125 27 19.8125C31.6525 19.8125 35.4375 23.5975 35.4375 28.25C35.4375 32.9025 31.6525 36.6875 27 36.6875ZM28.235 17.0725C28.2375 17.0463 28.25 17.0262 28.25 17V15.75H29.5C30.19 15.75 30.75 15.1912 30.75 14.5C30.75 13.8088 30.19 13.25 29.5 13.25H24.5C23.81 13.25 23.25 13.8088 23.25 14.5C23.25 15.1912 23.81 15.75 24.5 15.75H25.75V17C25.75 17.0262 25.7625 17.0463 25.765 17.0725C20.1413 17.69 15.75 22.465 15.75 28.25C15.75 34.4538 20.7975 39.5 27 39.5C33.2025 39.5 38.25 34.4538 38.25 28.25C38.25 22.465 33.8587 17.69 28.235 17.0725Z" fill="white"/>
</mask>
<g mask="url(#mask0_9_1100)">
<rect x="12" y="12" width="30" height="30" fill="#DCAA37"/>
</g>
</svg>
